<?xml version="1.0" encoding="UTF-8"?>
<svg id="Layer_1" data-name="Layer 1" xmlns="http://www.w3.org/2000/svg" xmlns:xlink="http://www.w3.org/1999/xlink" viewBox="0 0 323.42 323.42">
  <defs>
    <style>
      .cls-1 {
        fill: #0c8;
      }

      .cls-2 {
        fill: url(#linear-gradient-2);
      }

      .cls-3 {
        fill: #299655;
      }

      .cls-4 {
        fill: url(#linear-gradient);
      }

      .cls-5 {
        fill: #bbe835;
      }
    </style>
    <linearGradient id="linear-gradient" x1="898.22" y1="15927.05" x2="949.02" y2="15927.05" gradientTransform="translate(16125.23 -710.27) rotate(90)" gradientUnits="userSpaceOnUse">
      <stop offset="0" stop-color="#295955"/>
      <stop offset=".67" stop-color="#295955" stop-opacity=".28"/>
      <stop offset=".99" stop-color="#295955" stop-opacity="0"/>
    </linearGradient>
    <linearGradient id="linear-gradient-2" x1="103.11" y1="169.54" x2="159.84" y2="169.54" gradientUnits="userSpaceOnUse">
      <stop offset=".01" stop-color="#669626"/>
      <stop offset=".37" stop-color="#669626" stop-opacity=".6"/>
      <stop offset=".79" stop-color="#669626" stop-opacity=".17"/>
      <stop offset=".99" stop-color="#669626" stop-opacity="0"/>
    </linearGradient>
  </defs>
  <polygon class="cls-3" points="220.31 193.62 188.49 161.8 175.14 242.07 220.31 242.07 220.31 193.62"/>
  <polygon class="cls-4" points="176.06 238.75 184.27 187.95 220.31 193.62 220.31 238.75 176.06 238.75"/>
  <polygon class="cls-5" points="188.49 161.8 220.31 193.62 103.11 193.62 103.11 145.46 188.49 161.8"/>
  <polygon class="cls-2" points="159.84 193.62 103.11 193.62 103.11 145.46 159.84 156.32 159.84 193.62"/>
  <polygon class="cls-1" points="198.03 75.66 103.11 145.46 103.11 171.82 103.11 193.62 198.03 114.96 198.03 75.66"/>
</svg>