<?xml version="1.0" encoding="UTF-8"?>
<svg id="Layer_1" data-name="Layer 1" xmlns="http://www.w3.org/2000/svg" xmlns:xlink="http://www.w3.org/1999/xlink" viewBox="0 0 686.13 323.42" style="filter: hue-rotate(100deg);">
  <defs>
    <style>
      .cls-1 {
        fill: #003b1b;
      }

      .cls-2 {
        fill: #0c8;
      }

      .cls-3 {
        fill: url(#linear-gradient-2);
      }

      .cls-4 {
        fill: #299655;
      }

      .cls-5 {
        fill: url(#linear-gradient);
      }

      .cls-6 {
        fill: #bbe835;
      }

      .cls-7 {
        fill: #fff;
      }

      .cls-8 {
        clip-path: url(#clippath);
      }
    </style>
    <clipPath id="clippath">
      <rect class="cls-1" x="125.47" y="86.34" width="150.75" height="150.75" rx="17.15" ry="17.15"/>
    </clipPath>
    <linearGradient id="linear-gradient" x1="56.25" y1="14133.68" x2="123.98" y2="14133.68" gradientTransform="translate(14382.67 122.08) rotate(90)" gradientUnits="userSpaceOnUse">
      <stop offset="0" stop-color="#295955"/>
      <stop offset=".67" stop-color="#295955" stop-opacity=".28"/>
      <stop offset=".99" stop-color="#295955" stop-opacity="0"/>
    </linearGradient>
    <linearGradient id="linear-gradient-2" x1="122.23" y1="153.79" x2="197.87" y2="153.79" gradientUnits="userSpaceOnUse">
      <stop offset=".01" stop-color="#669626"/>
      <stop offset=".37" stop-color="#669626" stop-opacity=".6"/>
      <stop offset=".79" stop-color="#669626" stop-opacity=".17"/>
      <stop offset=".99" stop-color="#669626" stop-opacity="0"/>
    </linearGradient>
  </defs>
  <path class="cls-7" d="M330.56,172.01h9.6c.8,5.9,5.5,9.1,13.2,9.1,6.8,0,10.5-2.5,10.5-6.9,0-3.2-1.6-5.3-7.6-6.8l-8.2-1.9c-10.3-2.5-15.2-7.5-15.2-14.9,0-9.2,7.3-14.8,19.3-14.8s19.6,5.6,20.5,15.2h-9.6c-.8-4.9-4.7-7.5-11.2-7.5s-9.5,2.3-9.5,6.2c0,3.2,2.2,5.3,8,6.7l8.4,2.1c9.7,2.5,14.7,8.1,14.7,15.6,0,9.2-7.5,14.7-20.3,14.7s-21.6-6.1-22.6-16.8Z"/>
  <path class="cls-7" d="M380.86,162.21c0-15.7,10.5-26.4,25.9-26.4s24.2,9.9,24.2,25.2c0,1.6-.1,2.9-.3,4.4h-39.2c1,9.6,6.7,15.3,15.6,15.3,5.9,0,10.6-2.5,12.7-7.3h9.8c-3.4,9.6-11.6,15.4-22.7,15.4-15.4,0-26-11-26-26.6ZM391.66,157.61h28.9c-.9-8.9-5.8-13.7-13.8-13.7s-13.7,5.1-15.1,13.7Z"/>
  <path class="cls-7" d="M445.16,172.41v-27.3h-10.2v-8.3h10.2v-11.7l10.3-3.9v15.6h14.5v8.3h-14.5v27.4c0,5.4,2.6,7.8,8.9,7.8,2.4,0,4.3-.4,5.6-1v8.4c-1.5.6-4.2,1.1-7.6,1.1-12,0-17.2-5.6-17.2-16.4Z"/>
  <polygon class="cls-7" points="491.76 163.54 522.37 121.98 510.4 121.98 479.06 164.14 479.06 172.24 514.56 172.24 514.56 188.84 525.46 188.84 525.46 172.24 525.46 163.54 514.96 163.54 491.76 163.54"/>
  <g>
    <rect class="cls-1" x="125.47" y="86.34" width="150.75" height="150.75" rx="17.15" ry="17.15"/>
    <g class="cls-8">
      <g>
        <polygon class="cls-4" points="278.49 185.9 236.07 143.48 218.27 250.49 278.49 250.49 278.49 185.9"/>
        <polygon class="cls-5" points="219.49 246.07 230.44 178.33 278.49 185.9 278.49 246.07 219.49 246.07"/>
        <polygon class="cls-6" points="236.07 143.48 278.49 185.9 122.23 185.9 122.23 121.68 236.07 143.48"/>
        <polygon class="cls-3" points="197.87 185.9 122.23 185.9 122.23 121.68 197.87 136.16 197.87 185.9"/>
        <polygon class="cls-2" points="248.78 28.61 122.23 121.68 122.23 156.83 122.23 185.9 248.78 81.02 248.78 28.61"/>
      </g>
    </g>
  </g>
</svg>